<svg xmlns="http://www.w3.org/2000/svg" viewBox="0 0 672.08 114.85"><title>brand</title><g id="Layer_2" data-name="Layer 2"><rect x="6.85" y="6.85" width="658.96" height="102.38" style="fill:none;stroke:#ff80a2;stroke-miterlimit:10;stroke-width:7px"/><path d="M25.14,86V29H51.21q12,0,18.42,3.5t6.44,9.86a10.47,10.47,0,0,1-3.92,8.07,22.06,22.06,0,0,1-10,4.81v.16q7.65.75,12.21,4.49A11.35,11.35,0,0,1,78.92,69q0,7.83-7,12.42T52.66,86Zm16-48V52h7.31q5.14,0,8.11-2a6.31,6.31,0,0,0,3-5.5Q59.52,38,47.37,38Zm0,23V76h8.68c3.71,0,6.61-.68,8.71-2.06a6.42,6.42,0,0,0,3.15-5.64A6,6,0,0,0,58.58,63c-2.07-1.3-4.95-2-8.66-2Z" style="fill:#ff80a2"/><path d="M134.14,86h-43V29h16V76h27Z" style="fill:#ff80a2"/><path d="M208.21,86h-17L186,73H160l-5.14,13H137.91l25.93-57h19ZM181.87,63l-7.56-18.93A20.14,20.14,0,0,1,173.13,39h-.39A18.15,18.15,0,0,1,171.51,44L163.85,63Z" style="fill:#ff80a2"/><path d="M230.65,26.93q7.64.78,17.92,6Q262,39.78,266.45,50t-.88,20.73a24.93,24.93,0,0,1-17.88,13.75Q235.5,87,221.72,80A58.23,58.23,0,0,1,208.21,71l5.15-10.12a34.35,34.35,0,0,0,11.91,9.59q8.22,4.18,15.36,2.63a15.42,15.42,0,0,0,10.74-8.62,15,15,0,0,0,.73-13.21q-2.7-6.43-10.75-10.54a36.7,36.7,0,0,0-15.59-4.17Z" style="fill:#ff80a2"/><path d="M339.4,86H319L298.27,61.19A22,22,0,0,1,296.39,58h-.25V86h-16V29h16V56h.25q.6-1.11,2-3.18L318,29h19.27L312.42,56.23Z" style="fill:#ff80a2"/><path d="M362.14,66V86h-16V28h25.07q26.85,0,26.85,18.48,0,8.73-7.71,14.13T369.77,66Zm0-28V56h6.4q13,0,13-9.1,0-8.89-13-8.9Z" style="fill:#ff80a2"/><path d="M409.14,76h27V62h-24V52h24V39h-25V29h41V86h-43Z" style="fill:#ff80a2"/><path d="M528.17,86h-17l-5.19-13H480l-5.15,13H457.87L483.8,29h19ZM501.83,63l-7.56-18.93A20.14,20.14,0,0,1,493.09,39h-.39A18.15,18.15,0,0,1,491.47,44L483.81,63Z" style="fill:#ff80a2"/><path d="M598,86H578.64L567.47,71.26c-.84-1.13-1.64-2.13-2.41-3A16.94,16.94,0,0,0,562.73,66a9.52,9.52,0,0,0-2.45-1.45,7.63,7.63,0,0,0-2.78-.5h-4.36V86h-16V29H563q26.4,0,26.39,15.51a12.91,12.91,0,0,1-1.16,5.5A14.89,14.89,0,0,1,585,54.6a20.07,20.07,0,0,1-5.13,3.5,30.68,30.68,0,0,1-6.7,2.31v.15a11.67,11.67,0,0,1,3.14,1.3,21.17,21.17,0,0,1,2.93,2.08,32.74,32.74,0,0,1,2.71,2.57c.85.91,1.64,1.81,2.35,2.68ZM553.14,38V54h7a13.46,13.46,0,0,0,8.37-2.4,7.36,7.36,0,0,0,3.21-6.06q0-7.53-11.28-7.54Z" style="fill:#ff80a2"/><path d="M647.14,86h-43V29h16V76h27Z" style="fill:#ff80a2"/></g></svg>